{"title":"The Deer Hunter 1978 1080p BRRip  x264 6Ch-AAC - ViZNU [P2PDL]","uid":7590743,"size":3259418964,"categoryP":"video","categoryS":"hd___movies","magnet":"?xt=urn:btih:87163219b1a520c1646007192ae195e5e57f203f&amp;dn=The+Deer+Hunter+1978+1080p+BRRip++x264+6Ch-AAC+-+ViZNU+%5BP2PDL%5D&amp;tr=udp%3A%2F%2Ftracker.openbittorrent.com%3A80&amp;tr=udp%3A%2F%2Fopen.demonii.com%3A1337&amp;tr=udp%3A%2F%2Ftracker.coppersurfer.tk%3A6969&amp;tr=udp%3A%2F%2Fexodus.desync.com%3A6969","seeders":0,"leechers":0,"uploader":"ValidusVyto","files":-1,"time":1346532988,"description":"_________________________  Visit us at _________________________\n  &lt;a href=&quot;\nhttp://p2pdl.com&quot; rel=&quot;nofollow&quot; target=&quot;_NEW&quot;&gt;\nhttp://p2pdl.com&lt;/a&gt;  ____________________________ &lt;a href=&quot; http://p2pdl.com&quot; rel=&quot;nofollow&quot; target=&quot;_NEW&quot;&gt; http://p2pdl.com&lt;/a&gt;\n\n &lt;a href=&quot;\nhttp://i.imgur.com/YuSXe.jpg&quot; rel=&quot;nofollow&quot; target=&quot;_NEW&quot;&gt;\nhttp://i.imgur.com/YuSXe.jpg&lt;/a&gt;\n\n\nRelease Title: The Deer Hunter (1978) \n\n\t\t\t\t\t\nGenre: Drama | War\nIMDb Rating: 8.2/10  &lt;a href=&quot;\nhttp://vt802.us/zUcyT&quot; rel=&quot;nofollow&quot; target=&quot;_NEW&quot;&gt;\nhttp://vt802.us/zUcyT&lt;/a&gt;\n\n\nPlot: An in-depth examination of the way that the Vietnam war affects the lives of people in a small industrial town in the USA. \n\n\nDirector:  Michael Cimino\n\n\nStars: Robert De Niro, Christopher Walken and John Cazale.\n\n\nGeneral\nFormat                         : Matroska\nFormat version                 : Version 2\nFile size                      : 2.98 GiB\nDuration                       : 3h 3mn\nOverall bit rate               : 2 324 Kbps\nMovie name                     : The Deer Hunter 1978 1080p BRRip  x264 6Ch-AAC - ViZNU [P2PDL]\n\n\nVideo\nID                             : 1\nFormat                         : AVC\nFormat/Info                    : Advanced Video Codec\nCodec ID                       : V_MPEG4/ISO/AVC\nDuration                       : 3h 3mn\nBit rate                       : 1 872 Kbps\nWidth                          : 1 920 pixels\nHeight                         : 816 pixels\nDisplay aspect ratio           : 2.35:1\nFrame rate                     : 23.976 fps\nColor space                    : YUV\nChroma subsampling             : 4:2:0\nBit depth                      : 8 bits\nStream size                    : 2.35 GiB (79%)\nWriting library                : x264 \nDefault                        : Yes\n\n\nAudio\nID                             : 2\nFormat                         : AC-3\nFormat/Info                    : Audio Coding 3\nMode extension                 : CM (complete main)\nCodec ID                       : A_AC3\nDuration                       : 3h 3mn\nBit rate mode                  : Constant\nBit rate                       : 448 Kbps\nChannel(s)                     : 6 channels\nChannel positions              : Front: L C R, Side: L R, LFE\nSampling rate                  : 44.1 KHz\nStream size                    : 589 MiB (19%)\nLanguage                       : English\nDefault                        : Yes\n\n\nSubtitle: VobSub [English (Subtitle 1)]\n\n\nScreens:\n\n &lt;a href=&quot;\nhttp://i.imgbox.com/abs7algC.png&quot; rel=&quot;nofollow&quot; target=&quot;_NEW&quot;&gt;\nhttp://i.imgbox.com/abs7algC.png&lt;/a&gt; &lt;a href=&quot;\nhttp://i.imgbox.com/acwTvBuZ.png&quot; rel=&quot;nofollow&quot; target=&quot;_NEW&quot;&gt;\nhttp://i.imgbox.com/acwTvBuZ.png&lt;/a&gt; &lt;a href=&quot;\nhttp://i.imgbox.com/adp5KhdQ.png&quot; rel=&quot;nofollow&quot; target=&quot;_NEW&quot;&gt;\nhttp://i.imgbox.com/adp5KhdQ.png&lt;/a&gt; &lt;a href=&quot;\nhttp://i.imgbox.com/abk5xCnY.png&quot; rel=&quot;nofollow&quot; target=&quot;_NEW&quot;&gt;\nhttp://i.imgbox.com/abk5xCnY.png&lt;/a&gt; &lt;a href=&quot;\nhttp://i.imgbox.com/aclOZxlY.png&quot; rel=&quot;nofollow&quot; target=&quot;_NEW&quot;&gt;\nhttp://i.imgbox.com/aclOZxlY.png&lt;/a&gt; &lt;a href=&quot;\nhttp://i.imgbox.com/abxymIYo.png&quot; rel=&quot;nofollow&quot; target=&quot;_NEW&quot;&gt;\nhttp://i.imgbox.com/abxymIYo.png&lt;/a&gt; &lt;a href=&quot;\nhttp://i.imgbox.com/adweaWaD.png&quot; rel=&quot;nofollow&quot; target=&quot;_NEW&quot;&gt;\nhttp://i.imgbox.com/adweaWaD.png&lt;/a&gt; &lt;a href=&quot;\nhttp://i.imgbox.com/abo1TYHn.png&quot; rel=&quot;nofollow&quot; target=&quot;_NEW&quot;&gt;\nhttp://i.imgbox.com/abo1TYHn.png&lt;/a&gt; &lt;a href=&quot;\nhttp://i.imgbox.com/acsSCwxW.png&quot; rel=&quot;nofollow&quot; target=&quot;_NEW&quot;&gt;\nhttp://i.imgbox.com/acsSCwxW.png&lt;/a&gt; &lt;a href=&quot;\nhttp://i.imgbox.com/acnmgnuu.png&quot; rel=&quot;nofollow&quot; target=&quot;_NEW&quot;&gt;\nhttp://i.imgbox.com/acnmgnuu.png&lt;/a&gt;\n\n\nSample:\n\n &lt;a href=&quot;\nhttp://vt802.us/UX3uF&quot; rel=&quot;nofollow&quot; target=&quot;_NEW&quot;&gt;\nhttp://vt802.us/UX3uF&lt;/a&gt;\n\n\n------------------------------------------------------------------------\n\n\nRecommend you to use VLC player. Check sample to be sure. Enjoy!\n\n\nGreets to: srkfan, Vitamin_X, MgB, Feel_Free, staff members at ExtraTorrent, TPB,KAT, 1337x, PublicHD, Ahashare,\nSilverTorrent, TorrentMafia, P2PDL, and all others\n\n\nEncoder Notes: Looking For Early Access To Anything You Can Provide DVDScr, R5, DVDRips, BluRay, Direct Audio, Early Music\nReleases, Seedboxes, Links, Dedicated Servers anything u can provide, Advance / Promo CDs/DVDs. If You Got anything to\noffer contact me at &quot;&lt;a class=&quot;__cf_email__&quot; href=&quot;/cdn-cgi/l/email-protection&quot; data-cfemail=&quot;99faf6f7edf8faedd9edf0f7e0f4b7fcec&quot;&gt;[email&amp;#160;protected]&lt;/a&gt;&lt;script data-cfhash='f9e31' type=&quot;text/javascript&quot;&gt;\n/* &lt;![CDATA[ */!function(){try{var t=&quot;currentScript&quot;in document?document.currentScript:function(){for(var t=document.getElementsByTagName(&quot;script&quot;),e=t.length;e--;)if(t[e].getAttribute(&quot;data-cfhash&quot;))return t[e]}();if(t&amp;&amp;t.previousSibling){var e,r,n,i,c=t.previousSibling,a=c.getAttribute(&quot;data-cfemail&quot;);if(a){for(e=&quot;&quot;,r=parseInt(a.substr(0,2),16),n=2;a.length-n;n+=2)i=parseInt(a.substr(n,2),16)^r,e+=String.fromCharCode(i);e=document.createTextNode(e),c.parentNode.replaceChild(e,c)}t.parentNode.removeChild(t);}}catch(u){}}()/* ]]&gt; */&lt;/script&gt;&quot;\n\n\nOur Facebook Group:    &lt;a href=&quot;\nhttp://vt802.us/mbPOi&quot; rel=&quot;nofollow&quot; target=&quot;_NEW&quot;&gt;\nhttp://vt802.us/mbPOi&lt;/a&gt;\n\n\nOur Facebook Fan Page:    &lt;a href=&quot;\nhttp://vt802.us/0OS2J&quot; rel=&quot;nofollow&quot; target=&quot;_NEW&quot;&gt;\nhttp://vt802.us/0OS2J&lt;/a&gt;\n","torrent":{"xt":"urn:btih:87163219b1a520c1646007192ae195e5e57f203f","amp;dn":"The+Deer+Hunter+1978+1080p+BRRip++x264+6Ch-AAC+-+ViZNU+%5BP2PDL%5D","amp;tr":["udp%3A%2F%2Ftracker.openbittorrent.com%3A80","udp%3A%2F%2Fopen.demonii.com%3A1337","udp%3A%2F%2Ftracker.coppersurfer.tk%3A6969","udp%3A%2F%2Fexodus.desync.com%3A6969"],"infoHash":"87163219b1a520c1646007192ae195e5e57f203f","infoHashBuffer":{"type":"Buffer","data":[135,22,50,25,177,165,32,193,100,96,7,25,42,225,149,229,229,127,32,63]},"announce":[],"urlList":[]}}